<svg xmlns:inkscape="http://www.inkscape.org/namespaces/inkscape" xmlns:sodipodi="http://sodipodi.sourceforge.net/DTD/sodipodi-0.dtd" xmlns="http://www.w3.org/2000/svg" xmlns:svg="http://www.w3.org/2000/svg" xml:space="preserve" version="1.1" style="shape-rendering:geometricPrecision; text-rendering:geometricPrecision; image-rendering:optimizeQuality; fill-rule:evenodd; clip-rule:evenodd" id="svg113" sodipodi:docname="bgCadastrar.svg" inkscape:version="1.2.2 (732a01da63, 2022-12-09)" viewBox="8650 10327 5301 5300"><sodipodi:namedview id="namedview115" pagecolor="#ffffff" bordercolor="#000000" borderopacity="0.25" inkscape:showpageshadow="2" inkscape:pageopacity="0.0" inkscape:pagecheckerboard="0" inkscape:deskcolor="#d1d1d1" inkscape:document-units="mm" showgrid="false" inkscape:zoom="1.4142136" inkscape:cx="392.09071" inkscape:cy="438.05265" inkscape:window-width="1600" inkscape:window-height="837" inkscape:window-x="-4" inkscape:window-y="-4" inkscape:window-maximized="1" inkscape:current-layer="_844656560"/>
 <defs id="defs4">
  <style type="text/css" id="style2">
   <![CDATA[
    .fil5 {fill:#FEFEFE}
    .fil0 {fill:#FFE1A7}
    .fil15 {fill:#F599A8}
    .fil10 {fill:#EE3145}
    .fil2 {fill:#F6A432}
    .fil19 {fill:#F5D72A}
    .fil14 {fill:#E8E7F3}
    .fil16 {fill:#DB9E98}
    .fil12 {fill:#D4CDE5}
    .fil11 {fill:#D9C6AD}
    .fil18 {fill:#C77593}
    .fil3 {fill:#B24338}
    .fil20 {fill:#C9A83C}
    .fil7 {fill:#BC7D3C}
    .fil8 {fill:#C0BFDB}
    .fil6 {fill:#BFAC9C}
    .fil9 {fill:#872F34}
    .fil4 {fill:#948BC2}
    .fil17 {fill:#756BAF}
    .fil13 {fill:#2B84C5}
    .fil1 {fill:#2F3052}
   ]]>
  </style>
 </defs>
 <g id="Camada_x0020_1" inkscape:label="Camada 1">
  <metadata id="CorelCorpID_0Corel-Layer"/>
  <g id="_844656560">
   <polygon class="fil0" points="8650,15627 13951,15627 13951,10327 8650,10327 " id="polygon7"/>
   <path class="fil1" d="M10193 14636c99,52 125,79 269,79 140,-1 566,12 673,-15 299,-76 14,-74 317,6 41,11 25,18 55,30 26,10 977,14 1028,1 62,-15 54,-55 91,-88l8 -90c48,-17 110,-19 165,-41 274,-115 280,-527 95,-475 -44,12 -69,70 -85,122 -14,50 -28,107 -51,151 -21,37 -70,73 -128,81 -20,-31 -33,-103 -48,-144 -66,-178 -179,-276 -228,-387 23,-26 15,-16 29,-44 21,-44 -7,-17 32,-35 156,-74 348,-165 333,-370 -8,-105 -32,-146 -1,-238 38,-109 106,-343 78,-466 -43,-191 -297,-8 -381,20 -126,-89 -229,-122 -419,-133 7,-14 198,-136 220,-151l223 -167c71,-64 125,-102 160,-221 47,-163 74,-531 -67,-633 -126,-91 -544,7 -681,19 -30,3 -146,-78 -260,-119 -210,-75 -366,-54 -412,-64 -29,-6 -28,-23 -57,-42 -235,-154 -1027,55 -745,787 61,159 203,361 333,435l-11 178c-37,13 -48,-6 -76,29 -17,22 -50,133 -46,164 6,46 27,35 49,60 -81,244 -346,478 -490,669 -19,25 -31,40 -47,62 -31,43 -52,82 -78,134 -18,37 -43,129 -60,152 -95,17 -167,-2 -195,-76 -38,-103 -14,-200 -17,-238 -6,-94 -86,3 -114,30 -105,105 -194,230 -160,405 21,109 83,180 162,220 123,63 209,35 324,-6 23,127 87,279 174,370 30,32 33,19 39,39z" id="path9"/>
   <path id="path11" style="fill:#f27649;fill-opacity:1" class="fil2" d="M 11201.022 11366.025 L 11201.022 11395.015 L 11199.006 11404.989 C 11194.006 11657.988 11184.003 11834.016 11128.003 12067.015 C 11076.003 12280.015 11029.982 12481.985 10795.982 12472.985 C 10785.982 12520.985 10773.978 12599.98 10781.978 12646.98 C 10887.977 12694.98 11074.004 12733.023 11202.004 12750.023 C 11272.004 12760.023 11384.996 12777.991 11452.996 12765.991 C 11477.996 12642.991 11486.977 12536.977 11547.977 12444.977 C 11632.977 12317.977 11772.995 12494.989 11808.995 12506.989 L 11879.017 12602.022 C 11889.017 12611.022 11883.021 12606.01 11893.021 12614.01 L 12150.99 12443.995 C 12083.99 12443.995 12027.019 12412.021 11970.019 12397.021 C 11951.019 12427.021 11916.99 12440.017 11888.99 12457.017 C 11916.99 12440.017 11951.019 12427.021 11970.019 12397.021 L 11973.998 12392.008 C 11909.998 12373.009 11854.976 12305.999 11829.976 12252.999 C 11744.976 12071.999 11887.011 11971.013 11885.011 11808.013 C 11884.011 11715.013 11834.025 11663.017 11833.025 11580.017 C 11815.025 11545.017 11833.009 11536.995 11794.009 11509.995 C 11658.009 11416.995 11373.022 11347.025 11201.022 11366.025 z M 10732.988 12898.024 C 10727.988 12942.024 10714.98 12957.985 10704.98 12996.984 C 10595.98 13250.984 10498.976 13311.018 10334.976 13502.018 C 10169.977 13694.018 10088.995 13809.975 10034.995 14090.975 L 10020.009 14089.011 C 10007.009 14262.011 10121.006 14568.019 10322.006 14641.019 C 10418.006 14677.018 10786.025 14661.999 10936.025 14661.999 C 11052.025 14661.999 11036.009 14662.996 11122.008 14627.996 C 11124.008 14569.996 11107.014 14529.009 11079.014 14502.009 C 11033.014 14457.009 10970.008 14463.989 10954.008 14448.989 C 10934.008 14427.989 11006.987 14129.009 10957.987 14072.009 L 10959.021 14081.001 C 10954.021 14045.001 10948.012 14041.026 10931.012 14017.026 C 10901.012 13991.026 10871.008 13907.996 10749.008 13824.996 C 10655.008 13761.996 10599.996 13751.999 10481.996 13727.999 C 10458.996 13731.999 10449.012 13733.988 10427.012 13739.988 C 10413.012 13743.988 10394.005 13749.025 10379.005 13738.025 C 10663.004 13607.025 10971.989 13740.021 11011.989 14134.021 C 11015.989 14251.021 11005.991 14311.019 10991.991 14416.019 C 11050.991 14446.019 11071.996 14428.977 11116.996 14480.977 C 11148.996 14517.977 11162.988 14565.975 11162.988 14631.975 L 11276.986 14593.993 C 11270.986 14530.993 11167.014 13970.996 11153.014 13955.996 C 11159.014 13873.996 11111.983 13745.017 11111.983 13653.017 C 11143.983 13683.017 11165.995 13833.985 11173.995 13873.985 C 11188.995 13946.985 11213.018 14028.003 11224.018 14098.003 C 11231.018 14192.002 11271.009 14332.008 11290.009 14428.008 C 11314.009 14557.008 11306.006 14643.01 11461.006 14650.01 C 11473.006 14633.01 11476.002 14622.979 11484.002 14608.979 C 11498.002 14587.979 11500.005 14590.982 11518.005 14568.982 C 11502.005 14498.982 11490.98 14449.006 11507.98 14374.006 C 11514.98 14321.006 11540.023 14301.975 11554.023 14258.975 C 11560.023 14248.975 11554.997 14260.009 11563.997 14240.009 C 11564.997 14239.009 11571.025 14223.974 11571.025 14221.974 C 11575.025 14210.974 11579.996 14195.992 11583.996 14183.992 C 11615.996 14087.992 11622.999 13993.987 11617.999 13890.987 C 11612.999 13765.987 11605.991 13804.987 11569.991 13722.987 C 11559.991 13698.987 11558.977 13662.992 11547.977 13642.992 C 11525.977 13603.992 11420.993 13555.018 11324.994 13334.018 C 11254.994 13174.018 11347.975 13131.978 11382.974 13022.978 C 11263.975 13011.978 11156.01 13001.983 11045.011 12979.983 C 10932.011 12956.983 10840.988 12928.024 10732.988 12898.024 z M 9695.0155 13648.004 C 9666.0155 13669.004 9629.0022 13701.019 9616.0022 13744.019 C 9514.0023 13823.019 9485.0066 14164.001 9761.0063 14212.001 C 9852.0062 14228.001 9904.004 14196.988 9969.0039 14169.988 L 9969.0039 13987.983 L 9923.0119 13995.011 C 9828.012 14005.011 9746.9835 13955.981 9710.9835 13896.981 C 9688.9835 13860.981 9679.9958 13823.009 9678.9958 13773.009 C 9677.9958 13722.01 9695.0155 13677.004 9695.0155 13648.004 z M 11153.014 14048.135 C 11153.014 14076.51 11149.979 14106.489 11134.979 14149.989 C 11149.979 14106.489 11153.014 14076.51 11153.014 14048.135 z M 11096.119 14223.266 C 11078.244 14243.266 11054.515 14256.975 11022.015 14258.975 C 11054.515 14256.975 11078.244 14243.266 11096.119 14223.266 z M 11272.025 14225.023 C 11291.025 14281.523 11316.77 14368.024 11352.02 14430.024 C 11369.645 14461.024 11389.608 14485.886 11412.327 14497.823 C 11435.045 14509.761 11460.515 14508.755 11489.015 14488.005 C 11460.515 14508.755 11435.045 14509.761 11412.327 14497.823 C 11389.608 14485.886 11369.645 14461.024 11352.02 14430.024 C 11316.77 14368.024 11291.025 14281.523 11272.025 14225.023 z M 10902.022 14288.017 C 10879.522 14353.017 10852.52 14383.737 10829.52 14404.237 C 10852.52 14383.737 10879.522 14353.017 10902.022 14288.017 z M 10973.025 14525.987 C 10968.525 14551.987 10948.998 14565.981 10923.623 14574.356 C 10948.998 14565.981 10968.525 14551.987 10973.025 14525.987 z M 10347.999 14530.999 C 10454.999 14570.999 10540.024 14587.011 10657.024 14593.011 C 10540.024 14587.011 10454.999 14570.999 10347.999 14530.999 z "/>
   
   <path class="fil3" d="M10439 11531c-11,16 -15,26 -11,49 -53,174 116,563 309,665 204,107 316,-295 367,-446 7,-21 9,-27 14,-45 14,-53 9,-36 21,-51 4,-47 16,-100 22,-154 5,-49 7,-122 16,-170 13,5 14,7 24,16l0 -29c-36,-6 -62,-27 -95,-41 -32,-13 -70,-23 -104,-28 -84,-12 -167,1 -239,25 -134,44 -250,134 -324,209z" id="path15"/>
   <path class="fil4" d="M11490 12962c-12,9 -4,0 -18,17 -40,45 -130,218 -124,267 3,30 22,81 38,103 1,-31 10,-55 20,-82 19,-47 13,-32 44,-53 43,-82 258,-39 347,-46 118,-8 213,-95 317,-48 90,41 111,141 219,170 71,20 242,37 270,124 51,97 21,99 0,199 35,-24 93,-86 98,-138 7,-66 3,-171 -20,-221l-4 25c-72,-308 -272,-573 -614,-580 -25,42 -45,52 -102,58 -95,9 -93,-23 -119,-38 -106,33 -214,101 -286,174 -11,12 -60,65 -66,69z" id="path17" style="fill:#1190cb;fill-opacity:1"/>
   <path id="path19" style="fill:#1190cb;fill-opacity:1" class="fil4" d="M 11661.976 13833.006 L 11665.024 14003.021 C 11659.024 14105.021 11634.003 14206.983 11595.003 14286.983 C 11525.003 14430.983 11540.989 14432.983 11572.989 14585.983 C 11617.989 14567.983 11663.023 14582.012 11685.023 14573.012 C 11738.023 14537.012 11709.007 14467.987 11703.007 14357.987 C 11698.007 14274.987 11683.013 14192.01 11677.013 14109.01 C 11702.013 14133.01 11700.004 14173.998 11706.004 14214.998 C 11711.004 14253.998 11719.021 14292.993 11725.021 14331.993 C 11732.021 14378.993 11761.99 14526.005 11757.99 14562.005 L 11792.975 14553.995 C 11833.975 14549.995 11851.975 14561.018 11886.975 14567.018 C 11912.975 14595.018 11901.982 14655.002 11897.982 14696.002 C 11916.982 14671.002 11908.007 14476.011 11908.007 14425.011 C 11909.007 14374.011 11903.024 14193.009 11927.024 14166.009 C 11948.024 14204.009 11943.01 14538.996 11942.01 14627.996 C 11942.01 14635.996 11941.992 14655.999 11942.992 14661.999 C 11943.992 14681.999 11941.007 14658.985 11945.007 14676.985 C 11945.007 14679.985 11946.023 14682.013 11947.023 14684.013 C 11947.023 14686.013 11947.986 14689.008 11948.986 14690.008 C 11948.986 14692.008 11950.002 14694.984 11951.002 14696.984 L 11948.005 14596.008 C 11965.005 14570.008 11958.994 14578.979 11996.994 14571.979 C 12021.994 14567.979 12036.021 14564.993 12061.021 14556.993 C 12099.021 14554.993 12088.017 14550.021 12121.017 14564.021 C 12118.017 14514.021 12184.025 14172.985 12206.025 14135.985 C 12210.025 14141.985 12209.986 14137.002 12210.986 14155.002 L 12156.002 14559.008 C 12168.002 14564.008 12168.016 14565.979 12178.016 14571.979 C 12180.016 14572.979 12185.99 14578.007 12187.99 14579.007 C 12206.99 14590.007 12176.025 14577.999 12206.025 14587.998 C 12253.025 14549.999 12232.996 14558.024 12218.996 14504.024 C 12194.996 14414.024 12237.017 14280.996 12346.016 14254.996 C 12333.016 14302.996 12327.994 14270.013 12295.994 14311.013 C 12216.994 14410.013 12274.977 14501.982 12276.977 14568.982 C 12294.977 14560.982 12329.993 14552.986 12352.993 14545.986 C 12410.993 14535.986 12481.004 14549.983 12509.004 14585.983 L 12542.025 14613.992 C 12574.025 14643.992 12567.024 14619.981 12562.024 14662.981 C 12633.024 14576.981 12565.99 14314.987 12523.99 14226.987 C 12492.99 14159.987 12464.009 14111.987 12429.009 14058.987 C 12417.009 14038.987 12417.016 14035.026 12403.016 14017.026 L 12316.974 13901.994 C 12276.974 13913.994 12246.982 13934.007 12196.982 13944.007 C 12143.982 13955.007 12102.983 13955.978 12045.983 13956.978 C 12021.983 14007.978 12025.996 14042.023 11956.996 14057.023 C 11884.996 14073.023 11853.012 14033.981 11828.012 13990.981 L 11820.002 13913.983 C 11790.002 13899.983 11770.025 13891.982 11739.025 13876.982 C 11709.025 13860.982 11688.976 13845.006 11661.976 13833.006 z "/>
   <path class="fil5" d="M11835 11500l-2 80c1,83 51,135 52,228 2,163 -140,264 -55,445 25,53 80,120 144,139 20,-1 364,-196 377,-220 15,-28 5,-51 -14,-70 -26,-26 -30,-18 -54,-54 -37,-42 -91,-75 -97,-156 37,14 5,0 30,18 96,43 181,80 280,10 29,-21 67,-63 83,-103 21,-54 14,-105 22,-159 -7,-26 7,-8 -20,-7 -1,0 -25,7 -25,7 -156,50 -271,0 -325,-167l-8 -40c-63,7 -360,55 -388,49z" id="path21"/>
   <path class="fil6" d="M12626 14649c-37,33 -29,73 -91,88 -51,13 -1002,9 -1028,-1 -30,-12 -14,-19 -55,-30 -303,-80 -18,-82 -317,-6 -107,27 -533,14 -673,15 -144,0 -170,-27 -269,-79 -35,31 -626,15 -678,94 131,143 3363,149 3480,0 -30,-40 -119,-41 -164,-48 -65,-9 -135,-16 -201,-20l-4 -13z" id="path23"/>
   <path class="fil5" d="M11450 13214c3,73 145,213 185,241 246,170 594,241 845,66 26,-18 40,-26 63,-47 11,-11 19,-19 29,-30l31 -30c-28,-87 -199,-104 -270,-124 -108,-29 -129,-129 -219,-170 -104,-47 -199,40 -317,48 -89,7 -304,-36 -347,46z" id="path25"/>
   
   <path class="fil8" d="M11386 13349c25,89 139,208 194,254 214,177 636,248 896,109 45,-25 114,-67 127,-99 21,-100 51,-102 0,-199l-31 30c-10,11 -18,19 -29,30 -23,21 -37,29 -63,47 -251,175 -599,104 -845,-66 -40,-28 -182,-168 -185,-241 -31,21 -25,6 -44,53 -10,27 -19,51 -20,82z" id="path29"/>
   
   
   <path class="fil9" d="M11139 11703c-12,15 -7,-2 -21,51 -5,18 -7,24 -14,45 -51,151 -163,553 -367,446 -193,-102 -362,-491 -309,-665 -37,34 -20,228 -11,266 28,117 60,217 127,313l157 181c50,44 78,75 142,74 169,-5 214,-318 252,-465 15,-61 41,-183 44,-246z" id="path35"/>
   <path id="path37" style="fill:#1190cb;fill-opacity:1" class="fil10" d="M 10692.991 12682.017 C 10679.991 12712.017 10641.026 12799.014 10674.026 12816.014 C 10840.025 12891.014 11210.985 12971.976 11427.985 12968.976 L 11441.989 12864.021 L 11446.02 12825.987 C 11245.02 12809.987 11058.019 12792.021 10868.019 12733.021 C 10828.019 12721.021 10727.991 12679.017 10692.991 12682.017 z "/>
   
   <path class="fil8" d="M12283 12048c24,36 28,28 54,54 19,19 29,42 14,70 -13,24 -357,219 -377,220l-4 5c57,15 114,47 181,47 65,-33 328,-222 372,-285 28,-42 54,-93 64,-154 -126,117 -198,74 -304,43z" id="path41"/>
   <path class="fil11" d="M10439 11531c74,-75 190,-165 324,-209 72,-24 155,-37 239,-25 34,5 72,15 104,28 33,14 59,35 95,41 172,-19 457,51 593,144 39,27 21,35 39,70l2 -80c-57,-54 -205,-116 -282,-139 -143,-44 -234,-34 -379,-43 -51,-59 -86,-82 -189,-89 -212,-14 -490,117 -546,302z" id="path43" style="fill:#ffe1a7;fill-opacity:1"/>
   
   <path class="fil0" d="M10020 14089l15 2c54,-281 135,-397 300,-589 164,-191 261,-251 370,-505 10,-39 23,-55 28,-99l-28 -3c-97,294 -460,584 -588,811 -75,133 -86,212 -97,383z" id="path47"/>
   <path class="fil12" d="M11490 12962c6,-4 55,-57 66,-69 72,-73 180,-141 286,-174 26,15 24,47 119,38 57,-6 77,-16 102,-58 342,7 542,272 614,580l4 -25c-10,-132 -89,-280 -153,-369 -80,-110 -183,-175 -319,-215 -212,-62 -459,5 -595,146 -33,35 -108,101 -124,146z" id="path49" style="fill:#cde3e3;fill-opacity:1"/>
   
   <path class="fil13" d="M12046 13917c104,0 266,-18 294,-107 -127,31 -277,25 -407,-1 -222,-44 -265,-106 -333,-130 25,94 106,140 196,183 86,41 43,-18 131,-22 84,-4 82,54 119,77z" id="path53" style="fill:#f27649;fill-opacity:1"/>
   
   <path class="fil4" d="M11486 12880l56 -68c8,-19 11,-78 15,-103 16,-92 22,-113 71,-172 75,-3 138,70 152,112l57 -17c-32,-71 -190,-264 -268,-148 -46,69 -76,297 -83,396z" id="path57" style="fill:#1190cb;fill-opacity:1"/>
   <path class="fil4" d="M12484 12757l44 48c45,-36 126,-72 190,-44 24,66 11,131 -7,203 -26,105 -40,77 -7,183 37,-47 85,-325 84,-391 -2,-183 -238,-23 -304,1z" id="path59" style="fill:#1190cb;fill-opacity:1"/>
   <path class="fil14" d="M12790 14351l8 32 76 20c55,-30 151,-252 77,-308 -63,-48 -89,52 -104,99 -21,68 -32,99 -57,157z" id="path61"/>
   
   <path class="fil8" d="M12277 14569c-48,52 -95,123 39,127 75,3 213,20 246,-33 5,-43 12,-19 -20,-49l-33 -28c-19,15 -53,46 -98,39 -42,-6 -66,-36 -58,-79 -23,7 -58,15 -76,23z" id="path65"/>
   
   <path class="fil12" d="M12216 11910c29,95 189,161 293,83 42,-31 66,-78 85,-135 18,-52 39,-157 7,-200 -8,54 -1,105 -22,159 -16,40 -54,82 -83,103 -99,70 -184,33 -280,-10z" id="path69"/>
   <path class="fil0" d="M10931 14017c17,24 23,28 28,64l-1 -9c0,-108 -84,-230 -143,-271 -98,-68 -182,-99 -333,-73 118,24 173,34 267,97 122,83 152,166 182,192z" id="path71"/>
   <path class="fil0" d="M9695 13648c0,29 -17,74 -16,125 1,50 10,88 32,124 36,59 117,108 212,98l46 -7 4 -38c-250,6 -247,-104 -263,-320l-15 18z" id="path73"/>
   <path class="fil1" d="M11504 11843c46,-32 11,-124 112,-167 107,-45 152,56 196,52 -10,-101 -219,-180 -301,-30 -18,33 -33,106 -7,145z" id="path75"/>
   <path class="fil8" d="M11948 14596l3 101c87,-2 191,18 235,-35 2,-63 -39,-69 -65,-98 -33,-14 -22,-9 -60,-7 7,46 1,3 9,30 4,13 3,-9 5,18 2,32 -42,62 -86,29 -17,-13 -12,-20 -41,-38z" id="path77"/>
   <path class="fil16" d="M12553 12833l106 183c22,-29 45,-150 41,-192 -8,-87 -119,-10 -147,9z" id="path79"/>
   <path class="fil17" d="M12874 14403l-76 -20 -8 -32 -34 31c-38,36 -84,46 -122,68l1 51c50,18 218,-35 239,-98z" id="path81" style="fill:#1190cb;fill-opacity:1"/>
   <path class="fil4" d="M12223 11451l8 40 170 -11c1,4 3,5 3,9 5,26 38,41 65,44 42,4 67,-6 88,-29 -44,-85 -249,-67 -334,-53z" id="path83"/>
   <path class="fil8" d="M11573 14586c-8,17 -92,70 -54,103 36,17 108,9 153,6 -11,-54 8,-79 13,-122 -22,9 -67,-5 -112,13z" id="path85"/>
   <path class="fil8" d="M11758 14562c-26,29 -62,57 -48,116 39,29 123,18 188,18 4,-41 15,-101 -11,-129 33,106 -198,74 -94,-13l-35 8z" id="path87"/>
   <path class="fil1" d="M12041 13230c-125,26 -68,-28 -131,-55 -9,14 -7,0 -8,22 0,13 2,15 8,24 26,44 80,56 126,29 25,18 42,48 94,44 43,-2 82,-22 71,-56 -35,-17 -42,18 -73,25 -37,7 -60,-15 -75,-29 32,-32 43,-4 54,-54 -12,-17 -5,-18 -37,-25 -26,-6 -34,-4 -58,1 -11,44 8,45 29,74z" id="path89"/>
   
   <path class="fil1" d="M11695 13066c48,-10 68,-49 118,-35 47,13 40,61 80,71 62,-106 -177,-207 -198,-36z" id="path93"/>
   <path class="fil1" d="M12236 13157l25 2c20,-3 14,-5 25,-8 107,-31 93,59 132,88 36,-44 1,-119 -39,-138 -58,-27 -145,11 -143,56z" id="path95"/>
   <path class="fil5" d="M12509 14586c-28,-36 -98,-50 -156,-40 -8,43 16,73 58,79 45,7 79,-24 98,-39z" id="path97"/>
   <path class="fil15" d="M11690 12699c-6,-30 -14,-37 -30,-56 -24,-30 -15,-27 -47,-32l-34 167c29,-15 27,-15 53,-37 18,-15 36,-25 58,-42z" id="path99"/>
   <path class="fil5" d="M11887 14567c-35,-6 -53,-17 -94,-13 -104,87 127,119 94,13z" id="path101"/>
   <path class="fil18" d="M11613 12611c32,5 23,2 47,32 16,19 24,26 30,56 18,-10 40,-23 60,-35 -20,-39 -54,-90 -114,-94l-23 41z" id="path103"/>
   <path class="fil19" d="M11868 13928c37,16 63,47 125,30l-2 -33c-2,-13 9,-10 -16,-31 -12,-10 -23,-13 -40,-14 -40,-1 -57,21 -67,48z" id="path105"/>
   <path class="fil5" d="M11948 14596c29,18 24,25 41,38 44,33 88,3 86,-29 -2,-27 -1,-5 -5,-18 -8,-27 -2,16 -9,-30 -25,8 -39,11 -64,15 -38,7 -32,-2 -49,24z" id="path107"/>
   <path class="fil20" d="M11991 13925l2 33c-62,17 -88,-14 -125,-30 -19,46 16,88 59,91 51,3 97,-57 64,-94z" id="path109"/>
  </g>
 </g>
</svg>