<svg xmlns:dc="http://purl.org/dc/elements/1.1/" xmlns:cc="http://creativecommons.org/ns#" xmlns:rdf="http://www.w3.org/1999/02/22-rdf-syntax-ns#" xmlns:svg="http://www.w3.org/2000/svg" xmlns="http://www.w3.org/2000/svg" xmlns:sodipodi="http://sodipodi.sourceforge.net/DTD/sodipodi-0.dtd" xmlns:inkscape="http://www.inkscape.org/namespaces/inkscape" version="1.1" id="svg2041" inkscape:version="1.0.2-2 (e86c870879, 2021-01-15)" sodipodi:docname="Logo.svg" viewBox="23.94 117.89 169.84 39.38">
  <defs id="defs2035"/>
  <sodipodi:namedview id="base" pagecolor="#ffffff" bordercolor="#666666" borderopacity="1.0" inkscape:pageopacity="0.0" inkscape:pageshadow="2" inkscape:zoom="0.35" inkscape:cx="400" inkscape:cy="560" inkscape:document-units="mm" inkscape:current-layer="layer1" inkscape:document-rotation="0" showgrid="false" inkscape:window-width="1366" inkscape:window-height="705" inkscape:window-x="-8" inkscape:window-y="-8" inkscape:window-maximized="1"/>
  <metadata id="metadata2038">
    <rdf:RDF>
      <cc:Work rdf:about="">
        <dc:format>image/svg+xml</dc:format>
        <dc:type rdf:resource="http://purl.org/dc/dcmitype/StillImage"/>
        <dc:title/>
      </cc:Work>
    </rdf:RDF>
  </metadata>
  <g inkscape:label="Layer 1" inkscape:groupmode="layer" id="layer1">
    <g id="g2612" transform="translate(14.84621,8.2856911)">
      <g id="g1340" transform="translate(33.075465,8.517111)" style="fill:#1190cb;fill-opacity:1">
        <path style="fill:#1190cb;fill-opacity:1;stroke-width:0.264583" d="m 75.26594,140.06019 c -5.107675,-0.92185 -8.713551,-3.82276 -10.238107,-8.23653 -0.550775,-1.59456 -0.616227,-2.25489 -0.609772,-6.15192 0.0067,-4.06162 0.05738,-4.50876 0.727382,-6.42105 0.903029,-2.57739 1.652294,-3.76987 3.275806,-5.21353 2.64623,-2.35309 5.915906,-3.39849 11.335414,-3.62423 7.285309,-0.30346 12.118665,1.54714 13.420613,5.1385 0.431779,1.19103 0.734594,1.0745 0.734594,-0.28271 0,-1.62471 0.70489,-3.79223 1.389105,-4.27148 0.319397,-0.22371 0.961237,-0.40675 1.426313,-0.40675 h 0.845593 l 0.08772,-3.28036 c 0.07574,-2.83193 0.160063,-3.36107 0.616892,-3.87075 1.818077,-2.02839 9.975897,-3.15925 11.983877,-1.66123 l 0.71612,0.53425 0.0729,4.13905 0.0729,4.13904 h 1.97766 c 1.5691,0 2.07845,0.10079 2.46554,0.48789 1.35843,1.35843 0.65943,8.27565 -0.89661,8.87276 -0.23557,0.0904 -1.14204,0.16435 -2.01439,0.16435 h -1.58609 l 0.0864,5.11939 c 0.0664,3.93522 0.17331,5.22397 0.46219,5.57153 0.45864,0.5518 1.98686,1.21533 2.7991,1.21533 1.08985,0 1.2554,0.55502 1.15058,3.85722 -0.0938,2.95388 -0.12507,3.09607 -0.81134,3.68638 -2.00716,1.72648 -10.16275,0.83819 -13.53794,-1.47452 -2.655806,-1.81979 -3.587012,-5.56475 -3.59795,-14.4696 l -0.0043,-3.50573 h -1.300848 c -1.101976,0 -1.378849,-0.10708 -1.811049,-0.70039 l -0.510201,-0.7004 -0.157398,1.52506 c -0.200319,1.94089 -1.269569,4.13396 -2.521175,5.17102 -2.288098,1.89588 -5.248327,2.77393 -10.327213,3.06324 l -3.266427,0.18606 0.161422,0.8071 c 0.641504,3.20753 2.963185,3.33687 10.003755,0.5573 l 1.251075,-0.49391 0.777787,0.74517 c 1.123188,1.07608 2.724275,4.37966 2.873058,5.92808 0.119401,1.24264 0.08208,1.334 -0.828863,2.0288 -2.480379,1.89188 -11.105837,2.83615 -16.69402,1.82757 z m 6.663611,-17.07487 c 2.08044,-0.77408 3.515653,-2.21007 3.515653,-3.51756 0,-1.34148 -0.361204,-1.90046 -1.662493,-2.57275 -3.25773,-1.68305 -9.16781,0.33124 -9.62815,3.2815 -0.434827,2.78677 3.760668,4.30244 7.77499,2.80881 z m 44.035179,17.24485 c -3.32154,-0.37809 -5.19079,-0.81637 -6.677,-1.56553 l -1.43107,-0.72137 0.0421,-1.584 c 0.0701,-2.63644 1.88938,-6.4542 3.07559,-6.4542 0.31247,0 1.82241,0.43575 3.35542,0.96833 4.60143,1.59859 7.96082,1.4942 8.16332,-0.25367 0.0736,-0.63554 -0.0611,-0.79148 -1.05833,-1.22455 -0.62849,-0.27295 -1.79756,-0.57552 -2.59792,-0.67236 -3.06515,-0.3709 -6.51435,-1.59027 -7.77253,-2.74778 -1.37667,-1.26652 -2.01155,-3.04755 -2.01447,-5.65119 -0.006,-5.28544 2.32946,-7.99788 8.17568,-9.49566 2.27755,-0.5835 8.88403,-0.69982 12.3519,-0.21749 2.37955,0.33097 4.70403,1.1369 5.4603,1.89317 0.71934,0.71934 0.52857,2.2598 -0.57138,4.61377 -0.96399,2.06302 -1.9874,3.26318 -2.78057,3.26079 -0.30019,-9e-4 -1.78157,-0.35809 -3.29195,-0.79375 -3.86368,-1.11445 -6.38198,-1.02191 -6.38198,0.23453 0,0.82668 0.87263,1.32111 3.31943,1.8808 5.73538,1.31191 6.79866,1.73247 8.37083,3.31089 1.75272,1.7597 2.42116,4.11364 2.05352,7.23162 -0.45243,3.83702 -3.11788,6.46205 -7.71944,7.60238 -1.9569,0.48494 -9.17268,0.71524 -12.07148,0.38527 z m -92.83855,-0.45735 c -1.417814,-0.27343 -1.391389,0.0572 -1.391389,-17.40837 0,-14.10537 0.05159,-16.22778 0.406753,-16.73486 0.974867,-1.39181 6.691287,-2.06296 15.687741,-1.84185 6.601127,0.16224 8.774244,0.43683 10.760712,1.35971 4.058833,1.88565 5.57013,5.14082 5.536658,11.92533 -0.02733,5.53923 -0.966065,8.40321 -3.545036,10.81554 -2.141034,2.00268 -4.66966,2.67313 -11.185892,2.96586 l -3.638021,0.16344 v 3.92112 3.92113 l -0.859895,0.27584 c -2.043126,0.65541 -9.565614,1.06254 -11.771631,0.63711 z m 13.708532,-16.93706 c 1.113742,-0.39557 1.428175,-0.4096 2.41676,-0.10785 2.686835,0.82011 4.020362,0.62591 4.335939,-0.63145 0.263136,-1.04842 -2.181264,-4.7765 -3.677068,-5.60809 -0.823017,-0.45756 -2.733563,-0.41683 -3.483044,0.0742 -1.215586,0.79648 -3.580009,4.36058 -3.580009,5.39645 0,0.56709 1.08082,1.33142 1.882718,1.33142 0.453412,0 1.400529,-0.20463 2.104704,-0.45473 z m -2.982005,-5.15444 c 0.533758,-0.53376 0.379012,-2.42387 -0.277813,-3.39328 -1.21583,-1.79446 -3.108854,-1.51579 -3.108854,0.45764 0,2.1673 2.22571,4.0966 3.386667,2.93564 z m 10.314305,-0.0954 c 1.425122,-0.9982 1.86843,-3.48835 0.751318,-4.22031 -1.681051,-1.10147 -3.871665,2.1215 -2.801315,4.12147 0.330638,0.6178 1.246057,0.66194 2.049997,0.0988 z m -7.865483,-3.03449 c 1.512234,-0.80933 1.772186,-4.28763 0.408125,-5.46095 -0.943367,-0.81145 -1.83871,-0.78592 -2.51329,0.0717 -1.089394,1.38494 -1.033919,3.88424 0.111643,5.02981 0.687539,0.68754 1.205875,0.781 1.993522,0.35947 z m 5.403794,-0.35947 c 1.659462,-1.65947 0.837386,-5.71811 -1.1582,-5.71811 -2.213727,0 -2.973071,4.57461 -0.989915,5.96367 0.787844,0.55182 1.423379,0.47917 2.148115,-0.24556 z" id="path1342"/>
      </g>
      <g id="g1450" transform="translate(-9.1756125,59.093176)" style="fill:#f27649;fill-opacity:1">
        <path style="fill:#f27649;fill-opacity:1;stroke-width:0.264583" d="m 19.36317,89.012547 c -0.316854,-0.06168 -0.704701,-0.2671 -0.861882,-0.456491 -0.199625,-0.240536 -0.265243,-5.392079 -0.217651,-17.087368 l 0.06813,-16.743018 0.746688,-0.557686 c 0.730643,-0.545702 1.010338,-0.559322 13.015542,-0.633796 l 12.268854,-0.07611 0.278294,1.002151 c 0.730186,2.629422 -0.06177,9.005419 -1.171448,9.431242 -0.326954,0.125463 -6.452023,-0.193697 -9.725951,-0.506794 L 31.97781,63.213883 v 1.86872 1.86872 l 5.260535,-0.162852 5.260534,-0.162853 0.351605,0.63609 c 0.430408,0.778652 0.439698,5.179419 0.01421,6.729681 -0.583594,2.12629 -0.4079,2.067246 -5.95299,2.000584 l -4.933892,-0.05931 v 1.737256 c 0,1.479738 0.06864,1.736635 0.463021,1.733069 0.254662,-0.0024 1.83224,-0.115234 3.505729,-0.25096 3.708124,-0.300739 8.671997,-0.421466 8.877549,-0.215914 0.725914,0.725914 0.517745,7.926954 -0.273381,9.45682 l -0.415673,0.803825 -12.097893,-0.03603 c -6.653843,-0.01982 -12.35714,-0.0865 -12.673994,-0.148182 z M 47.627052,88.52456 c -0.598519,-0.760894 -1.060021,-2.620383 -1.277832,-5.148638 -0.147722,-1.714699 -0.144343,-1.725427 1.140735,-3.623003 0.708893,-1.046768 2.806944,-3.752062 4.662335,-6.011763 1.85539,-2.259702 3.373437,-4.171459 3.373437,-4.248349 0,-0.07689 -1.779185,-0.139801 -3.953748,-0.139801 -3.785754,0 -3.971248,-0.02498 -4.365625,-0.588038 -0.89344,-1.275566 -0.323064,-7.135893 0.804243,-8.263201 0.355801,-0.3558 1.816471,-0.409178 11.197188,-0.409178 10.005835,0 10.8189,0.03413 11.214042,0.47076 0.655526,0.724349 1.243483,3.389359 1.243483,5.636298 0,1.987119 -0.02622,2.067301 -1.328581,4.062312 -0.730718,1.119349 -2.576187,3.690264 -4.101042,5.713144 -1.524852,2.02288 -2.77246,3.741698 -2.77246,3.819599 0,0.0779 1.890421,0.141637 4.200938,0.141637 3.55252,0 4.255931,0.06627 4.557247,0.429328 0.87404,1.053156 0.495466,6.244566 -0.584928,8.021132 l -0.492562,0.809956 H 59.649862 48.155801 Z" id="path1448"/>
      </g>
    </g>
  </g>
</svg>